<?xml version="1.0" encoding="utf-8"?>
<!DOCTYPE svg PUBLIC "-//W3C//DTD SVG 1.1//EN" "http://www.w3.org/Graphics/SVG/1.1/DTD/svg11.dtd">
<svg xmlns="http://www.w3.org/2000/svg" xmlns:xlink="http://www.w3.org/1999/xlink" width="36px" height="36px">
    <path fill-rule="evenodd"  fill="rgb(252, 252, 252)"
          d="M35.353,4.417 L21.413,18.038 L35.274,31.581 C36.135,32.592 36.135,34.230 35.274,35.240 C34.414,36.251 33.019,36.251 32.158,35.240 L17.983,21.390 L3.844,35.204 C2.984,36.215 1.589,36.215 0.728,35.204 C-0.132,34.194 -0.132,32.556 0.728,31.545 L14.552,18.038 L0.649,4.453 C-0.211,3.442 -0.212,1.804 0.649,0.794 C1.510,-0.217 2.905,-0.217 3.765,0.794 L17.983,14.686 L32.237,0.758 C33.098,-0.253 34.493,-0.252 35.354,0.758 C36.214,1.768 36.214,3.406 35.353,4.417 Z"/>
</svg>